<svg width="302" height="118" viewBox="0 0 302 118" fill="none" xmlns="http://www.w3.org/2000/svg">
<g filter="url(#filter0_d_752_3150)">
<rect x="34" y="34" width="202" height="50" fill="#FF3434"/>
<path fill-rule="evenodd" clip-rule="evenodd" d="M236 34L268 63.6296V84H236V63.6296V34Z" fill="#FF3434"/>
<path d="M66.6199 64.26H67.8799C68.4533 64.26 68.7399 63.9133 68.7399 63.22V51.64H70.6599V63.58C70.6599 65.1933 69.9199 66 68.4399 66H66.6199V64.26ZM74.6766 66C73.13 66 72.3566 65.1867 72.3566 63.56V54.1C72.3566 52.46 73.1233 51.64 74.6566 51.64H76.4966C78.03 51.64 78.7966 52.46 78.7966 54.1V63.56C78.7966 65.1867 78.0233 66 76.4766 66H74.6766ZM75.1366 64.26H76.1166C76.6233 64.26 76.8766 63.98 76.8766 63.42V54.22C76.8766 53.66 76.59 53.38 76.0166 53.38H75.1166C74.5566 53.38 74.2766 53.66 74.2766 54.22V63.42C74.2766 63.98 74.5633 64.26 75.1366 64.26ZM80.5035 66V51.64H82.4235V66H80.5035ZM88.1945 58.58V51.64H90.1145V66H88.1945V63.14L86.1345 56.6V66H84.2145V51.64H86.1345L88.1945 58.58ZM98.1729 53.38V66H96.2529V53.38H94.4129V51.64H100.013V53.38H98.1729ZM105.389 66V59.48H103.029V66H101.109V51.64H103.029V57.74H105.389V51.64H107.309V66H105.389ZM109.117 66V51.64H113.877V53.38H111.037V57.74H113.557V59.48H111.037V64.26H113.877V66H109.117ZM118.453 51.64H122.213C123.679 51.64 124.413 52.46 124.413 54.1V57.64C124.413 58.8933 124.033 59.6867 123.273 60.02L124.613 66H122.793L121.533 60.2H120.373V66H118.453V51.64ZM120.373 58.56H121.633C122.206 58.56 122.493 58.2133 122.493 57.52V54.42C122.493 53.7267 122.206 53.38 121.633 53.38H120.373V58.56ZM126.011 66V51.64H130.771V53.38H127.931V57.74H130.451V59.48H127.931V64.26H130.771V66H126.011ZM138.364 51.64L136.044 66H133.764L131.444 51.64H133.344L134.904 62.6L136.464 51.64H138.364ZM141.493 66C139.946 66 139.173 65.1867 139.173 63.56V54.1C139.173 52.46 139.94 51.64 141.473 51.64H143.313C144.846 51.64 145.613 52.46 145.613 54.1V63.56C145.613 65.1867 144.84 66 143.293 66H141.493ZM141.953 64.26H142.933C143.44 64.26 143.693 63.98 143.693 63.42V54.22C143.693 53.66 143.406 53.38 142.833 53.38H141.933C141.373 53.38 141.093 53.66 141.093 54.22V63.42C141.093 63.98 141.38 64.26 141.953 64.26ZM151.88 66H147.32V51.64H149.24V64.26H151.88V66ZM159.224 51.64V63.28C159.224 65.0933 158.451 66 156.904 66H155.284C153.751 66 152.984 65.0867 152.984 63.26V51.64H154.904V63.32C154.904 63.9467 155.184 64.26 155.744 64.26H156.524C157.044 64.26 157.304 63.9467 157.304 63.32V51.64H159.224ZM164.091 53.38V66H162.171V53.38H160.331V51.64H165.931V53.38H164.091ZM167.027 66V51.64H168.947V66H167.027ZM172.958 66C171.411 66 170.638 65.1867 170.638 63.56V54.1C170.638 52.46 171.405 51.64 172.938 51.64H174.778C176.311 51.64 177.078 52.46 177.078 54.1V63.56C177.078 65.1867 176.305 66 174.758 66H172.958ZM173.418 64.26H174.398C174.905 64.26 175.158 63.98 175.158 63.42V54.22C175.158 53.66 174.871 53.38 174.298 53.38H173.398C172.838 53.38 172.558 53.66 172.558 54.22V63.42C172.558 63.98 172.845 64.26 173.418 64.26ZM182.765 58.58V51.64H184.685V66H182.765V63.14L180.705 56.6V66H178.785V51.64H180.705L182.765 58.58Z" fill="#111111"/>
<path d="M210.43 52.9301L216.5 59.0001L210.43 65.0701" stroke="black" stroke-width="1.5" stroke-miterlimit="10" stroke-linecap="round" stroke-linejoin="round"/>
<path d="M199.5 59H216.33" stroke="black" stroke-width="1.5" stroke-miterlimit="10" stroke-linecap="round" stroke-linejoin="round"/>
</g>
<defs>
<filter id="filter0_d_752_3150" x="0" y="0" width="302" height="118" filterUnits="userSpaceOnUse" color-interpolation-filters="sRGB">
<feFlood flood-opacity="0" result="BackgroundImageFix"/>
<feColorMatrix in="SourceAlpha" type="matrix" values="0 0 0 0 0 0 0 0 0 0 0 0 0 0 0 0 0 0 127 0" result="hardAlpha"/>
<feOffset/>
<feGaussianBlur stdDeviation="17"/>
<feComposite in2="hardAlpha" operator="out"/>
<feColorMatrix type="matrix" values="0 0 0 0 1 0 0 0 0 0.203922 0 0 0 0 0.203922 0 0 0 0.3 0"/>
<feBlend mode="normal" in2="BackgroundImageFix" result="effect1_dropShadow_752_3150"/>
<feBlend mode="normal" in="SourceGraphic" in2="effect1_dropShadow_752_3150" result="shape"/>
</filter>
</defs>
</svg>
